<svg width="178" height="40" viewBox="0 0 178 40" fill="none" xmlns="http://www.w3.org/2000/svg">
<path d="M10 34L24.9527 7L28.9401 25.3396L32.429 14.6415L34.9211 29.9245L45.8864 9.03774L58.8454 28.3962L72.3028 14.6415L74.2965 21.7736L78.7823 18.2075L80.2776 21.7736L82.2713 18.2075L83.7666 19.7358L89.7476 29.9245L92.2397 7L94.2334 14.6415L96.7256 11.0755L107.691 32.4717L109.186 25.3396H113.174V21.7736L119.653 18.2075L122.145 13.6226L127.628 11.0755L130.618 9.03774L131.615 14.6415L134.606 12.6038L136.101 16.1698L139.091 12.6038L145.571 25.3396L153.047 9.03774L160.025 32.4717L168 13.6226" stroke="#00FFC2" stroke-width="2"/>
</svg>
