<svg width="17" height="16" viewBox="0 0 17 16" fill="none" xmlns="http://www.w3.org/2000/svg">
<path d="M16.4771 0.380285C16.2676 0.194613 16.0134 0.0710888 15.7416 0.0227987C15.4697 -0.0254914 15.1904 0.00325111 14.933 0.105981L0.960573 5.79583C0.655223 5.9162 0.396509 6.13708 0.224204 6.42452C0.0518985 6.71196 -0.024458 7.05005 0.00687338 7.3868C0.0349022 7.72484 0.16811 8.04435 0.386487 8.29732C0.604863 8.55028 0.896617 8.72305 1.21792 8.78966L4.52559 9.47151V13.8055C4.52396 14.1156 4.61167 14.4192 4.7775 14.6775C4.94333 14.9358 5.17976 15.137 5.45658 15.2554C5.64184 15.3327 5.83967 15.3726 6.0394 15.373C6.23813 15.3738 6.43501 15.3334 6.61834 15.2539C6.80167 15.1745 6.96773 15.0577 7.10664 14.9106L8.87022 13.0845L11.6405 15.6081C11.9134 15.8602 12.2663 15.9997 12.632 15.9999C12.7916 16.0014 12.9503 15.9749 13.1013 15.9216C13.3512 15.8399 13.5763 15.6921 13.7542 15.4928C13.932 15.2935 14.0566 15.0496 14.1156 14.7852L16.9615 1.91639C17.0231 1.63893 17.0106 1.34935 16.9252 1.07872C16.8399 0.808091 16.685 0.56664 16.4771 0.380285ZM9.96773 4.15001L5.22194 7.70028L2.58792 7.15168L9.96773 4.15001ZM6.34216 13.0453V10.7803L7.50779 11.8384L6.34216 13.0453ZM12.4579 13.8525L6.88713 8.77399L14.9103 2.77849L12.4579 13.8525Z" fill="black"/>
</svg>
